<svg width="1366" height="719" viewBox="0 0 1366 719" fill="none" xmlns="http://www.w3.org/2000/svg">
<g clip-path="url(#clip0_328_2832)">
<mask id="mask0_328_2832" style="mask-type:luminance" maskUnits="userSpaceOnUse" x="0" y="0" width="1366" height="719">
<path d="M1366 0H0V719H1366V0Z" fill="white"/>
</mask>
<g mask="url(#mask0_328_2832)">
<path fill-rule="evenodd" clip-rule="evenodd" d="M-19 660.737V681.737C170.309 739.934 466.878 717.959 762.718 696.039C989.018 679.27 1214.89 662.534 1392 681.737V660.737C1214.89 641.534 989.018 658.27 762.718 675.038L762.717 675.039C466.878 696.959 170.309 718.934 -19 660.737Z" fill="#FCF1C9"/>
<path fill-rule="evenodd" clip-rule="evenodd" d="M0 363V0H1366V363H1392V660.737C1214.89 641.534 989.018 658.27 762.718 675.038C466.878 696.959 170.309 718.934 -19 660.737V363H0Z" fill="url(#paint0_linear_328_2832)"/>
<g style="mix-blend-mode:lighten" opacity="0.1">
<path fill-rule="evenodd" clip-rule="evenodd" d="M304 581.5C304 691.129 215.129 780 105.5 780C75.0551 780 46.211 773.146 20.4266 760.897L223.372 557.951C234.225 547.099 234.225 529.503 223.372 518.65C212.519 507.798 194.924 507.798 184.071 518.65L-26.7811 729.502C-39.0035 718.571 -49.8636 706.148 -59.0753 692.519L72.3919 561.051C83.2446 550.199 83.2446 532.603 72.3919 521.75C61.5393 510.898 43.9436 510.898 33.0909 521.75L-84.4546 639.296C-90.0115 621.009 -93 601.603 -93 581.5C-93 471.871 -4.12852 383 105.5 383C215.129 383 304 471.871 304 581.5Z" fill="white"/>
<path fill-rule="evenodd" clip-rule="evenodd" d="M1252.06 249.955C1285.27 235.691 1310.65 200.961 1316.13 168.809V168.797C1316.03 170.256 1315.93 171.758 1315.82 173.299C1314.03 199.987 1311.44 238.339 1271.65 270.579C1225.74 308.119 1159.47 291.881 1132.03 263.128C1087.46 222.347 1081.33 151.181 1112.27 106.955C1137.23 74.1916 1164.55 60.2449 1207.28 57.9524C1178.33 61.1368 1160.17 73.332 1138.38 108.77C1114.14 157.681 1130.37 203.563 1152.63 227.412C1175.71 254.986 1218.85 264.219 1252.06 249.955ZM1212.41 157.064L1206.04 137.457L1199.67 157.064H1179.05L1195.73 169.181L1189.36 188.788L1206.04 176.67L1222.72 188.788L1216.35 169.181L1233.03 157.064H1212.41Z" fill="white"/>
<path fill-rule="evenodd" clip-rule="evenodd" d="M499.564 337.093L471.657 483.187L446.682 458.211L397.211 507.681L390.388 500.858L462.717 428.529C464.978 426.268 464.978 422.602 462.717 420.34C460.456 418.079 456.79 418.079 454.529 420.34L382.199 492.67L328.976 439.446L378.446 389.976L353.471 365L499.564 337.093Z" fill="white"/>
<path fill-rule="evenodd" clip-rule="evenodd" d="M193.093 315.564L221 169.471L245.976 194.446L295.446 144.976L302.27 151.799L229.94 224.129C227.679 226.39 227.679 230.056 229.94 232.317C232.202 234.578 235.868 234.578 238.129 232.317L310.458 159.988L363.681 213.211L314.211 262.682L339.187 287.657L193.093 315.564Z" fill="white"/>
<path d="M503.382 573.682L550.503 620.804C561.985 632.285 561.985 650.9 550.503 662.382L503.382 709.503C491.9 720.985 473.285 720.985 461.804 709.503L414.682 662.382C403.201 650.9 403.201 632.285 414.682 620.804L461.804 573.682C473.285 562.201 491.9 562.201 503.382 573.682Z" fill="white"/>
<path fill-rule="evenodd" clip-rule="evenodd" d="M517.241 537.648C498.105 518.513 467.08 518.513 447.945 537.648L378.648 606.945C359.513 626.08 359.513 657.105 378.648 676.241L447.945 745.538C467.08 764.673 498.105 764.673 517.241 745.538L586.538 676.241C605.673 657.105 605.673 626.08 586.538 606.945L517.241 537.648ZM447.945 559.823C467.08 540.687 498.105 540.687 517.241 559.823L564.363 606.945C583.498 626.08 583.498 657.105 564.363 676.241L517.241 723.363C498.105 742.498 467.08 742.498 447.945 723.363L400.823 676.241C381.687 657.105 381.687 626.08 400.823 606.945L447.945 559.823Z" fill="white"/>
<path d="M1167.38 573.682L1214.5 620.804C1225.98 632.285 1225.98 650.9 1214.5 662.382L1167.38 709.503C1155.9 720.985 1137.29 720.985 1125.8 709.503L1078.68 662.382C1067.2 650.9 1067.2 632.285 1078.68 620.804L1125.8 573.682C1137.29 562.201 1155.9 562.201 1167.38 573.682Z" fill="white"/>
<path fill-rule="evenodd" clip-rule="evenodd" d="M1181.24 537.648C1162.11 518.513 1131.08 518.513 1111.94 537.648L1042.65 606.945C1023.51 626.08 1023.51 657.105 1042.65 676.241L1111.94 745.538C1131.08 764.673 1162.11 764.673 1181.24 745.538L1250.54 676.241C1269.67 657.105 1269.67 626.08 1250.54 606.945L1181.24 537.648ZM1111.94 559.823C1131.08 540.687 1162.11 540.687 1181.24 559.823L1228.36 606.945C1247.5 626.08 1247.5 657.105 1228.36 676.241L1181.24 723.363C1162.11 742.498 1131.08 742.498 1111.94 723.363L1064.82 676.241C1045.69 657.105 1045.69 626.08 1064.82 606.945L1111.94 559.823Z" fill="white"/>
<path fill-rule="evenodd" clip-rule="evenodd" d="M683.241 703.648C664.106 684.513 633.08 684.513 613.945 703.648L544.648 772.945C525.513 792.08 525.513 823.105 544.648 842.241L613.945 911.538C633.08 930.673 664.106 930.673 683.241 911.538L752.538 842.241C771.673 823.105 771.673 792.08 752.538 772.945L683.241 703.648ZM613.945 725.823C633.08 706.687 664.106 706.687 683.241 725.823L730.363 772.945C749.499 792.08 749.499 823.105 730.363 842.241L683.241 889.363C664.106 908.498 633.08 908.498 613.945 889.363L566.823 842.241C547.687 823.105 547.687 792.08 566.823 772.945L613.945 725.823Z" fill="white"/>
<path d="M669.382 407.682L716.504 454.804C727.985 466.285 727.985 484.9 716.504 496.382L669.382 543.503C657.901 554.985 639.285 554.985 627.804 543.503L580.682 496.382C569.201 484.9 569.201 466.285 580.682 454.804L627.804 407.682C639.285 396.201 657.901 396.201 669.382 407.682Z" fill="white"/>
<path fill-rule="evenodd" clip-rule="evenodd" d="M683.241 371.648C664.106 352.513 633.08 352.513 613.945 371.648L544.648 440.945C525.513 460.08 525.513 491.105 544.648 510.241L613.945 579.538C633.08 598.673 664.106 598.673 683.241 579.538L752.538 510.241C771.673 491.105 771.673 460.08 752.538 440.945L683.241 371.648ZM613.945 393.823C633.08 374.687 664.106 374.687 683.241 393.823L730.363 440.945C749.499 460.08 749.499 491.105 730.363 510.241L683.241 557.363C664.106 576.498 633.08 576.498 613.945 557.363L566.823 510.241C547.687 491.105 547.687 460.08 566.823 440.945L613.945 393.823Z" fill="white"/>
<path d="M1333.38 407.682L1380.5 454.804C1391.98 466.285 1391.98 484.9 1380.5 496.382L1333.38 543.503C1321.9 554.985 1303.29 554.985 1291.8 543.503L1244.68 496.382C1233.2 484.9 1233.2 466.285 1244.68 454.804L1291.8 407.682C1303.29 396.201 1321.9 396.201 1333.38 407.682Z" fill="white"/>
<path fill-rule="evenodd" clip-rule="evenodd" d="M1347.24 371.648C1328.11 352.513 1297.08 352.513 1277.94 371.648L1208.65 440.945C1189.51 460.08 1189.51 491.105 1208.65 510.241L1277.94 579.538C1297.08 598.673 1328.11 598.673 1347.24 579.538L1416.54 510.241C1435.67 491.105 1435.67 460.08 1416.54 440.945L1347.24 371.648ZM1277.94 393.823C1297.08 374.687 1328.11 374.687 1347.24 393.823L1394.36 440.945C1413.5 460.08 1413.5 491.105 1394.36 510.241L1347.24 557.363C1328.11 576.498 1297.08 576.498 1277.94 557.363L1230.82 510.241C1211.69 491.105 1211.69 460.08 1230.82 440.945L1277.94 393.823Z" fill="white"/>
<path d="M835.382 573.682L882.504 620.804C893.985 632.285 893.985 650.9 882.504 662.382L835.382 709.503C823.901 720.985 805.285 720.985 793.804 709.503L746.682 662.382C735.201 650.9 735.201 632.285 746.682 620.804L793.804 573.682C805.285 562.201 823.901 562.201 835.382 573.682Z" fill="white"/>
<path fill-rule="evenodd" clip-rule="evenodd" d="M849.241 537.648C830.106 518.513 799.08 518.513 779.945 537.648L710.648 606.945C691.513 626.08 691.513 657.105 710.648 676.241L779.945 745.538C799.08 764.673 830.106 764.673 849.241 745.538L918.538 676.241C937.673 657.105 937.673 626.08 918.538 606.945L849.241 537.648ZM779.945 559.823C799.08 540.687 830.106 540.687 849.241 559.823L896.363 606.945C915.499 626.08 915.499 657.105 896.363 676.241L849.241 723.363C830.106 742.498 799.08 742.498 779.945 723.363L732.823 676.241C713.687 657.105 713.687 626.08 732.823 606.945L779.945 559.823Z" fill="white"/>
<path fill-rule="evenodd" clip-rule="evenodd" d="M1513.24 537.648C1494.11 518.513 1463.08 518.513 1443.94 537.648L1374.65 606.945C1355.51 626.08 1355.51 657.105 1374.65 676.241L1443.94 745.538C1463.08 764.673 1494.11 764.673 1513.24 745.538L1582.54 676.241C1601.67 657.105 1601.67 626.08 1582.54 606.945L1513.24 537.648ZM1443.94 559.823C1463.08 540.687 1494.11 540.687 1513.24 559.823L1560.36 606.945C1579.5 626.08 1579.5 657.105 1560.36 676.241L1513.24 723.363C1494.11 742.498 1463.08 742.498 1443.94 723.363L1396.82 676.241C1377.69 657.105 1377.69 626.08 1396.82 606.945L1443.94 559.823Z" fill="white"/>
<path d="M20.3818 136.682L67.5034 183.804C78.9848 195.285 78.9848 213.9 67.5034 225.382L20.3818 272.503C8.90039 283.985 -9.71466 283.985 -21.1961 272.503L-68.3177 225.382C-79.7991 213.9 -79.7991 195.285 -68.3177 183.804L-21.1961 136.682C-9.71466 125.201 8.90039 125.201 20.3818 136.682Z" fill="white"/>
<path fill-rule="evenodd" clip-rule="evenodd" d="M34.2412 100.648C15.1055 81.5125 -15.9196 81.5125 -35.0553 100.648L-104.352 169.945C-123.487 189.08 -123.487 220.105 -104.352 239.241L-35.0553 308.538C-15.9196 327.673 15.1055 327.673 34.2412 308.538L103.538 239.241C122.673 220.105 122.673 189.08 103.538 169.945L34.2412 100.648ZM-35.0553 122.823C-15.9196 103.687 15.1055 103.687 34.2412 122.823L81.3628 169.945C100.498 189.08 100.498 220.105 81.3628 239.241L34.2412 286.363C15.1055 305.498 -15.9196 305.498 -35.0553 286.363L-82.1769 239.241C-101.313 220.105 -101.313 189.08 -82.1769 169.945L-35.0553 122.823Z" fill="white"/>
<path d="M186.382 -29.3176L233.503 17.804C244.985 29.2854 244.985 47.9005 233.503 59.3819L186.382 106.503C174.9 117.985 156.285 117.985 144.804 106.503L97.6824 59.3819C86.2009 47.9005 86.2009 29.2854 97.6824 17.804L144.804 -29.3176C156.285 -40.799 174.9 -40.799 186.382 -29.3176Z" fill="white"/>
<path fill-rule="evenodd" clip-rule="evenodd" d="M200.241 -65.3518C181.105 -84.4875 150.08 -84.4875 130.945 -65.3518L61.6482 3.9447C42.5125 23.0804 42.5125 54.1055 61.6482 73.2412L130.945 142.538C150.08 161.673 181.105 161.673 200.241 142.538L269.538 73.2412C288.673 54.1055 288.673 23.0804 269.538 3.9447L200.241 -65.3518ZM130.945 -43.1769C150.08 -62.3126 181.105 -62.3126 200.241 -43.1769L247.363 3.9447C266.498 23.0804 266.498 54.1055 247.363 73.2412L200.241 120.363C181.105 139.498 150.08 139.498 130.945 120.363L83.8231 73.2412C64.6874 54.1055 64.6874 23.0804 83.8231 3.9447L130.945 -43.1769Z" fill="white"/>
</g>
</g>
</g>
<defs>
<linearGradient id="paint0_linear_328_2832" x1="683" y1="686.999" x2="683" y2="0" gradientUnits="userSpaceOnUse">
<stop stop-color="#FCDD6F"/>
<stop offset="0.221667" stop-color="#FCDD6F" stop-opacity="0.75"/>
<stop offset="0.756667" stop-color="#FCEE6F" stop-opacity="0.75"/>
<stop offset="1" stop-color="#FCEE6F" stop-opacity="0"/>
</linearGradient>
<clipPath id="clip0_328_2832">
<rect width="1366" height="719" fill="white"/>
</clipPath>
</defs>
</svg>
