<svg width="6830" height="300" viewBox="0 0 6830 300" fill="none" xmlns="http://www.w3.org/2000/svg">
<g clip-path="url(#clip0_74_46)">
<rect width="6830" height="300" fill="#388580"/>
<g opacity="0.7">
<path d="M2801.98 -6.51602C2793.43 -26.126 2776.47 -40.2256 2757.14 -43.811C2729.87 -48.8616 2705.36 -33.2231 2686.91 -9.40493C2680.16 -0.686621 2674.04 8.73137 2666.48 16.5604C2648.21 35.4575 2629.22 29.2605 2607.72 34.3687C2549.78 48.1133 2566.28 134.195 2541.84 177.951C2525.94 206.426 2495.13 221.092 2467.63 214.874C2465.66 214.428 2463.6 213.886 2461.6 214.561C2460.22 215.03 2459.01 216.041 2457.89 217.096C2440.33 233.563 2436.91 264.472 2445.36 285.618C2454.7 309.004 2474.7 323.918 2495.06 335.026C2511.31 343.894 2528.74 351.151 2547.24 351.627C2597.48 352.933 2641.9 305.598 2691.99 294.317C2702.81 291.884 2713.82 291.15 2724.48 287.681C2751.59 278.857 2772.98 253.499 2789.53 226.915C2809.92 194.138 2825.84 155.459 2823.32 117.059C2821.71 92.4643 2812.64 69.6606 2811.42 45.0047C2810.55 27.8233 2808.53 8.52194 2801.98 -6.51602Z" fill="#AFDAE0"/>
<path d="M2701.96 -36.37C2682.15 -44.4482 2660.16 -42.7082 2643.82 -31.7832C2620.76 -16.3645 2614.12 11.944 2617.54 41.8734C2618.79 52.8328 2620.98 63.846 2621.03 74.732C2621.14 101.012 2603.22 109.831 2591.38 128.499C2559.49 178.777 2631.38 228.91 2644.42 277.301C2652.91 308.791 2641.09 340.796 2617.06 355.536C2615.33 356.593 2613.48 357.643 2612.52 359.524C2611.86 360.822 2611.69 362.392 2611.63 363.931C2610.55 387.979 2629.67 412.498 2650.48 421.747C2673.5 431.971 2698.23 428.691 2720.56 422.435C2738.39 417.444 2755.93 410.478 2769.52 397.902C2806.4 363.774 2805.18 298.869 2833.17 255.831C2839.22 246.538 2846.59 238.324 2851.81 228.398C2865.06 203.158 2862.68 170.068 2855.97 139.484C2847.7 101.774 2832.1 62.9676 2803.49 37.2259C2785.18 20.7367 2762.77 10.7352 2744.68 -6.06953C2732.07 -17.7641 2717.14 -30.1737 2701.96 -36.37Z" fill="#C4E9F1"/>
<path d="M2683.96 -31.37C2664.15 -39.4482 2642.16 -37.7082 2625.82 -26.7832C2602.76 -11.3645 2596.12 16.944 2599.54 46.8734C2600.79 57.8328 2602.98 68.846 2603.03 79.732C2603.14 106.012 2585.22 114.831 2573.38 133.499C2541.49 183.777 2613.38 233.91 2626.42 282.301C2634.91 313.791 2623.09 345.796 2599.06 360.536C2597.33 361.593 2595.48 362.643 2594.52 364.524C2593.86 365.822 2593.69 367.392 2593.63 368.931C2592.55 392.979 2611.67 417.498 2632.48 426.747C2655.5 436.971 2680.23 433.691 2702.56 427.435C2720.39 422.444 2737.93 415.478 2751.52 402.902C2788.4 368.774 2787.18 303.869 2815.17 260.831C2821.22 251.538 2828.59 243.324 2833.81 233.398C2847.06 208.158 2844.68 175.068 2837.97 144.484C2829.7 106.774 2814.1 67.9676 2785.49 42.2259C2767.18 25.7367 2744.77 15.7352 2726.68 -1.06953C2714.07 -12.7641 2699.14 -25.1737 2683.96 -31.37Z" fill="#D1EFF5"/>
<path d="M2663.96 -57.37C2644.15 -65.4482 2622.16 -63.7082 2605.82 -52.7832C2582.76 -37.3645 2576.12 -9.05601 2579.54 20.8734C2580.79 31.8328 2582.98 42.846 2583.03 53.732C2583.14 80.0119 2565.22 88.8312 2553.38 107.499C2521.49 157.777 2593.38 207.91 2606.42 256.301C2614.91 287.791 2603.09 319.796 2579.06 334.536C2577.33 335.593 2575.48 336.643 2574.52 338.524C2573.86 339.822 2573.69 341.392 2573.63 342.931C2572.55 366.979 2591.67 391.498 2612.48 400.747C2635.5 410.971 2660.23 407.691 2682.56 401.435C2700.39 396.444 2717.93 389.478 2731.52 376.902C2768.4 342.774 2767.18 277.869 2795.17 234.831C2801.22 225.538 2808.59 217.324 2813.81 207.398C2827.06 182.158 2824.68 149.068 2817.97 118.484C2809.7 80.7736 2794.1 41.9676 2765.49 16.2259C2747.18 -0.263298 2724.77 -10.2648 2706.68 -27.0695C2694.07 -38.7641 2679.14 -51.1737 2663.96 -57.37Z" fill="#E2F0F3"/>
</g>
<rect width="2610" height="300" fill="#AFD0D0"/>
</g>
<defs>
<clipPath id="clip0_74_46">
<rect width="6830" height="300" fill="white"/>
</clipPath>
</defs>
</svg>
