<svg width="500" height="500" viewBox="0 0 500 500" fill="none" xmlns="http://www.w3.org/2000/svg">
<g clip-path="url(#clip0_328_2871)">
<path d="M680.604 502.318V503.818H665.718V502.318H650.831V503.818H635.944V502.318H621.057V503.818H606.17V502.318H591.284V503.818H576.397V502.318H561.51V503.818H546.623V502.318H531.737V503.818H516.85V502.318H501.963V503.818H487.076V502.318H472.189V503.818H457.303V502.318H442.416V503.818H427.529V502.318H412.642V503.818H397.756V502.318H382.869V503.818H367.982V502.318H353.095V503.818H338.209V502.318H323.322V503.818H308.435V502.318H293.548V503.818H278.662V502.318H263.775V503.818H248.888V502.318H234.001V503.818H219.115V502.318H204.228V503.818H189.341V502.318H174.454V503.818H159.568V502.318H144.681V503.818H129.794V502.318H114.907V503.818H100.021V502.318H85.1338V503.818H70.247V502.318H55.3602V503.818H40.4735V502.318H25.5867V503.818H10.7V502.318H-4.18678V503.818H-19.0735V502.318H-33.9603V503.818H-48.8471V502.318H-55.7054C-55.9301 502.111 -56.2414 501.823 -56.6348 501.458C-57.5246 500.631 -58.8344 499.407 -60.5118 497.822L-61.5421 498.912C-64.2541 496.349 -67.9238 492.844 -72.3308 488.545L-71.2834 487.472C-74.4524 484.381 -78.0035 480.878 -81.8544 477.02L-82.9161 478.079C-86.2136 474.776 -89.7306 471.211 -93.4157 467.421L-92.3402 466.375C-95.6551 462.966 -99.106 459.374 -102.656 455.624L-103.745 456.655C-107.056 453.157 -110.452 449.522 -113.904 445.77L-112.801 444.755C-116.086 441.184 -119.421 437.508 -122.78 433.745L-123.899 434.743C-127.158 431.091 -130.44 427.356 -133.721 423.554L-132.585 422.574C-135.799 418.85 -139.01 415.062 -142.198 411.226L-143.351 412.185C-146.518 408.374 -149.661 404.514 -152.758 400.622L-151.585 399.688C-154.678 395.801 -157.725 391.881 -160.703 387.943L-161.9 388.848C-164.917 384.86 -167.865 380.853 -170.721 376.843L-169.499 375.973C-172.404 371.894 -175.212 367.813 -177.9 363.745L-179.152 364.573C-181.936 360.359 -184.594 356.159 -187.097 351.99L-185.811 351.218C-188.417 346.877 -190.853 342.574 -193.09 338.328L-194.417 339.028C-196.812 334.482 -198.982 329.998 -200.89 325.6L-199.514 325.003C-201.565 320.275 -203.306 315.658 -204.694 311.182L-206.127 311.626C-207.682 306.611 -208.803 301.758 -209.427 297.111L-207.941 296.912C-208.623 291.83 -208.693 287.034 -208.083 282.573L-209.57 282.37C-208.876 277.297 -207.328 272.605 -204.809 268.372L-203.52 269.139C-201.203 265.245 -198.016 261.741 -193.834 258.697L-194.716 257.484C-191.108 254.857 -186.801 252.575 -181.738 250.676L-181.211 252.081C-177.079 250.532 -172.412 249.238 -167.172 248.227L-167.456 246.754C-162.931 245.882 -157.997 245.22 -152.635 244.785L-152.513 246.28C-147.889 245.904 -142.937 245.698 -137.641 245.67L-137.649 244.17C-133.055 244.147 -128.209 244.257 -123.102 244.508L-123.176 246.006C-118.439 246.239 -113.474 246.593 -108.273 247.073L-108.135 245.58C-103.41 246.016 -98.4943 246.556 -93.381 247.204L-93.5695 248.692C-88.8616 249.289 -83.9848 249.977 -78.9345 250.759L-78.7048 249.277C-73.9543 250.013 -69.052 250.833 -63.9942 251.738L-64.2584 253.214C-61.735 253.666 -59.1725 254.139 -56.5706 254.634C-54.0639 255.11 -51.5662 255.576 -49.0772 256.031L-48.8076 254.555C-43.8365 255.463 -38.9007 256.328 -33.9996 257.151L-34.2479 258.63C-29.2794 259.464 -24.3464 260.255 -19.4482 261.004L-19.2214 259.521C-14.216 260.286 -9.24702 261.008 -4.3138 261.688L-4.51845 263.174C0.46608 263.86 5.41423 264.504 10.3268 265.105L10.5092 263.617C15.5389 264.233 20.5313 264.805 25.487 265.336L25.3273 266.827C30.3305 267.363 35.2964 267.856 40.2259 268.307L40.3628 266.814C45.4068 267.276 50.4127 267.695 55.3812 268.073L55.2675 269.568C60.2897 269.95 65.2738 270.29 70.2208 270.589L70.3114 269.092C75.3598 269.397 80.3694 269.661 85.3412 269.884L85.2739 271.382C90.3138 271.609 95.3148 271.794 100.278 271.94L100.322 270.44C105.366 270.589 110.37 270.697 115.336 270.766L115.315 272.266C120.37 272.337 125.385 272.368 130.362 272.362L130.36 270.862C135.39 270.856 140.38 270.811 145.333 270.731L145.357 272.231C150.423 272.148 155.448 272.029 160.436 271.874L160.389 270.375C165.404 270.219 170.38 270.028 175.318 269.804L175.386 271.303C180.452 271.073 185.478 270.808 190.466 270.512L190.377 269.015C195.401 268.717 200.387 268.386 205.335 268.026L205.444 269.522C210.476 269.155 215.469 268.759 220.425 268.334L220.297 266.839C225.326 266.409 230.317 265.949 235.272 265.465L235.418 266.958C240.421 266.468 245.387 265.953 250.316 265.415L250.154 263.924C255.176 263.376 260.162 262.804 265.112 262.212L265.29 263.701C270.297 263.103 275.266 262.483 280.201 261.847L280.01 260.359C284.991 259.716 289.937 259.056 294.849 258.382L295.053 259.868C300.061 259.18 305.035 258.478 309.975 257.766L309.76 256.281C314.742 255.562 319.69 254.833 324.606 254.096L324.829 255.579C329.799 254.834 334.738 254.082 339.645 253.326L339.417 251.844C344.405 251.076 349.361 250.304 354.289 249.534L354.521 251.016C358.714 250.36 362.887 249.704 367.04 249.052L369.35 248.689L369.118 247.207C374.078 246.429 379.01 245.655 383.917 244.89L384.148 246.373C389.128 245.597 394.082 244.831 399.01 244.079L398.784 242.597C403.759 241.838 408.709 241.095 413.637 240.37L413.856 241.854C418.822 241.124 423.766 240.414 428.688 239.729L428.482 238.243C433.461 237.55 438.419 236.882 443.36 236.244L443.552 237.732C448.535 237.088 453.5 236.476 458.449 235.899L458.275 234.409C463.264 233.828 468.236 233.283 473.196 232.78L473.347 234.272C478.33 233.767 483.299 233.304 488.256 232.888L488.131 231.393C493.133 230.974 498.125 230.603 503.108 230.285L503.204 231.782C508.199 231.464 513.185 231.201 518.165 230.997L518.104 229.498C523.109 229.293 528.109 229.148 533.106 229.07L533.13 230.569C538.122 230.491 543.11 230.478 548.099 230.537L548.116 229.037C553.118 229.095 558.12 229.226 563.124 229.434L563.062 230.933C568.036 231.139 573.012 231.423 577.994 231.788L578.104 230.292C583.079 230.657 588.061 231.104 593.05 231.639L592.891 233.13C597.835 233.659 602.788 234.275 607.751 234.981L607.962 233.496C612.888 234.198 617.825 234.989 622.775 235.875L622.511 237.352C627.381 238.224 632.263 239.188 637.161 240.249L637.479 238.783C642.335 239.835 647.206 240.983 652.095 242.231L651.724 243.684C656.528 244.91 661.349 246.233 666.189 247.658L666.612 246.219C671.348 247.614 676.103 249.105 680.878 250.698L680.404 252.121C682.78 252.913 685.161 253.731 687.548 254.574C690.062 255.463 692.519 256.363 694.92 257.275L695.453 255.873C700.341 257.73 704.999 259.635 709.433 261.584L708.829 262.957C713.659 265.08 718.22 267.255 722.522 269.477L723.21 268.145C727.964 270.6 732.407 273.115 736.555 275.683L735.766 276.958C740.271 279.748 744.421 282.598 748.233 285.502L749.142 284.308C753.391 287.545 757.232 290.85 760.688 294.216L759.642 295.29C763.405 298.954 766.701 302.683 769.565 306.465L770.761 305.559C773.987 309.819 776.681 314.152 778.887 318.539L777.547 319.213C779.856 323.806 781.619 328.457 782.891 333.145L784.338 332.752C785.687 337.722 786.495 342.735 786.826 347.766L785.329 347.864C785.656 352.837 785.507 357.834 784.943 362.832L786.434 363.001C785.868 368.013 784.892 373.019 783.567 377.994L782.117 377.608C780.84 382.402 779.233 387.173 777.35 391.899L778.744 392.455C776.876 397.142 774.743 401.779 772.396 406.347L771.062 405.661C768.766 410.13 766.263 414.534 763.604 418.853L764.881 419.639C762.208 423.979 759.38 428.231 756.447 432.374L755.223 431.507C752.276 435.67 749.222 439.723 746.113 443.648L747.289 444.579C744.066 448.647 740.785 452.575 737.504 456.34L736.374 455.354C732.944 459.289 729.515 463.046 726.151 466.598L727.24 467.629C723.55 471.525 719.939 475.175 716.496 478.544L715.447 477.471C711.49 481.343 707.753 484.841 704.372 487.914L705.381 489.024C700.797 493.19 696.862 496.577 693.905 499.053L692.942 497.903C691.105 499.442 689.648 500.627 688.653 501.425C688.165 501.817 687.787 502.116 687.531 502.318H680.604Z" stroke="#59A29D" stroke-width="3" stroke-dasharray="15 15"/>
<path d="M-56.2904 269.221C289.556 331.091 465.404 195.188 688.047 269.221C910.691 343.254 688.047 505.068 688.047 505.068H-56.2904C-56.2904 505.068 -402.137 207.351 -56.2904 269.221Z" fill="#59A29D"/>
<path d="M-56.2904 288C289.556 346.582 465.404 217.901 688.047 288C910.691 358.098 688.047 511.314 688.047 511.314H-56.2904C-56.2904 511.314 -402.137 229.418 -56.2904 288Z" fill="#388580"/>
</g>
<defs>
<clipPath id="clip0_328_2871">
<rect width="500" height="500" rx="18" fill="white"/>
</clipPath>
</defs>
</svg>
