<svg width="500" height="500" viewBox="0 0 500 500" fill="none" xmlns="http://www.w3.org/2000/svg">
<g clip-path="url(#clip0_328_2872)">
<path d="M-123.604 502.318V503.818H-108.718V502.318H-93.8307V503.818H-78.944V502.318H-64.0573V503.818H-49.1704V502.318H-34.2836V503.818H-19.3969V502.318H-4.51007V503.818H10.3767V502.318H25.2635V503.818H40.1503V502.318H55.037V503.818H69.9238V502.318H84.8106V503.818H99.6973V502.318H114.584V503.818H129.471V502.318H144.358V503.818H159.244V502.318H174.131V503.818H189.018V502.318H203.905V503.818H218.791V502.318H233.678V503.818H248.565V502.318H263.452V503.818H278.338V502.318H293.225V503.818H308.112V502.318H322.999V503.818H337.885V502.318H352.772V503.818H367.659V502.318H382.546V503.818H397.432V502.318H412.319V503.818H427.206V502.318H442.093V503.818H456.979V502.318H471.866V503.818H486.753V502.318H501.64V503.818H516.527V502.318H531.413V503.818H546.3V502.318H561.187V503.818H576.074V502.318H590.96V503.818H605.847V502.318H612.705C612.93 502.111 613.241 501.823 613.635 501.458C614.525 500.631 615.834 499.407 617.512 497.822L618.542 498.912C621.254 496.349 624.924 492.844 629.331 488.545L628.283 487.472C631.452 484.381 635.004 480.878 638.854 477.02L639.916 478.079C643.214 474.776 646.731 471.211 650.416 467.421L649.34 466.375C652.655 462.966 656.106 459.374 659.656 455.624L660.745 456.655C664.056 453.157 667.452 449.522 670.904 445.77L669.801 444.755C673.086 441.184 676.421 437.508 679.78 433.745L680.899 434.743C684.158 431.091 687.44 427.356 690.721 423.554L689.585 422.574C692.799 418.85 696.01 415.062 699.198 411.226L700.351 412.185C703.518 408.374 706.661 404.514 709.758 400.622L708.585 399.688C711.678 395.801 714.725 391.881 717.703 387.943L718.9 388.848C721.917 384.86 724.865 380.853 727.721 376.843L726.499 375.973C729.404 371.894 732.212 367.813 734.9 363.745L736.152 364.573C738.936 360.359 741.594 356.159 744.097 351.99L742.811 351.218C745.417 346.877 747.853 342.574 750.09 338.328L751.417 339.028C753.812 334.482 755.982 329.998 757.89 325.6L756.514 325.003C758.565 320.275 760.306 315.658 761.694 311.182L763.127 311.626C764.682 306.611 765.803 301.758 766.427 297.111L764.941 296.912C765.623 291.83 765.693 287.034 765.083 282.573L766.57 282.37C765.876 277.297 764.328 272.605 761.809 268.372L760.52 269.139C758.203 265.245 755.016 261.741 750.834 258.697L751.716 257.484C748.108 254.857 743.801 252.575 738.738 250.676L738.211 252.081C734.079 250.532 729.412 249.238 724.172 248.227L724.456 246.754C719.931 245.882 714.997 245.22 709.635 244.785L709.513 246.28C704.889 245.904 699.937 245.698 694.641 245.67L694.649 244.17C690.055 244.147 685.209 244.257 680.102 244.508L680.176 246.006C675.439 246.239 670.474 246.593 665.273 247.073L665.135 245.58C660.41 246.016 655.494 246.556 650.381 247.204L650.569 248.692C645.862 249.289 640.985 249.977 635.935 250.759L635.705 249.277C630.954 250.013 626.052 250.833 620.994 251.738L621.258 253.214C618.735 253.666 616.173 254.139 613.571 254.634C611.064 255.11 608.566 255.576 606.077 256.031L605.808 254.555C600.837 255.463 595.901 256.328 591 257.151L591.248 258.63C586.279 259.464 581.346 260.255 576.448 261.004L576.221 259.521C571.216 260.286 566.247 261.008 561.314 261.688L561.518 263.174C556.534 263.86 551.586 264.504 546.673 265.105L546.491 263.617C541.461 264.233 536.469 264.805 531.513 265.336L531.673 266.827C526.669 267.363 521.704 267.856 516.774 268.307L516.637 266.814C511.593 267.276 506.587 267.695 501.619 268.073L501.733 269.568C496.71 269.95 491.726 270.29 486.779 270.589L486.689 269.092C481.64 269.397 476.631 269.661 471.659 269.884L471.726 271.382C466.686 271.609 461.685 271.794 456.722 271.94L456.678 270.44C451.634 270.589 446.63 270.697 441.664 270.766L441.685 272.266C436.63 272.337 431.615 272.368 426.638 272.362L426.64 270.862C421.61 270.856 416.62 270.811 411.667 270.731L411.643 272.231C406.577 272.148 401.552 272.029 396.564 271.874L396.611 270.375C391.596 270.219 386.62 270.028 381.682 269.804L381.614 271.303C376.548 271.073 371.522 270.808 366.534 270.512L366.623 269.015C361.599 268.717 356.613 268.386 351.665 268.026L351.556 269.522C346.524 269.155 341.531 268.759 336.575 268.334L336.703 266.839C331.674 266.409 326.683 265.949 321.728 265.465L321.582 266.958C316.579 266.468 311.613 265.953 306.684 265.415L306.846 263.924C301.824 263.376 296.838 262.804 291.888 262.212L291.71 263.701C286.703 263.103 281.734 262.483 276.799 261.847L276.99 260.359C272.009 259.716 267.063 259.056 262.151 258.382L261.947 259.868C256.939 259.18 251.965 258.478 247.025 257.766L247.24 256.281C242.258 255.562 237.31 254.833 232.394 254.096L232.171 255.579C227.201 254.834 222.262 254.082 217.355 253.326L217.583 251.844C212.595 251.076 207.639 250.304 202.711 249.534L202.479 251.016C198.286 250.36 194.113 249.704 189.96 249.052L187.65 248.689L187.882 247.207C182.922 246.429 177.99 245.655 173.083 244.89L172.852 246.373C167.872 245.597 162.918 244.831 157.99 244.079L158.216 242.597C153.241 241.838 148.291 241.095 143.363 240.37L143.144 241.854C138.178 241.124 133.234 240.414 128.312 239.729L128.518 238.243C123.539 237.55 118.581 236.882 113.64 236.244L113.448 237.732C108.465 237.088 103.5 236.476 98.5515 235.899L98.7251 234.409C93.7363 233.828 88.7636 233.283 83.8044 232.78L83.653 234.272C78.6699 233.767 73.7012 233.304 68.744 232.888L68.8693 231.393C63.8666 230.974 58.8749 230.603 53.8915 230.285L53.7962 231.782C48.8009 231.464 43.8146 231.201 38.8345 230.997L38.8959 229.498C33.8906 229.293 28.8909 229.148 23.894 229.07L23.8704 230.569C18.8782 230.491 13.8896 230.478 8.90149 230.537L8.88385 229.037C3.88214 229.095 -1.11957 229.226 -6.12408 229.434L-6.06177 230.933C-11.0358 231.139 -16.0122 231.423 -20.9938 231.788L-21.1035 230.292C-26.0793 230.657 -31.0608 231.104 -36.0505 231.639L-35.8908 233.13C-40.8353 233.659 -45.7877 234.275 -50.7506 234.981L-50.962 233.496C-55.8882 234.198 -60.825 234.989 -65.7751 235.875L-65.5108 237.352C-70.3806 238.224 -75.2632 239.188 -80.1611 240.249L-80.4788 238.783C-85.3349 239.835 -90.2061 240.983 -95.0948 242.231L-94.7239 243.684C-99.5277 244.91 -104.349 246.233 -109.189 247.658L-109.612 246.219C-114.348 247.614 -119.103 249.105 -123.878 250.698L-123.404 252.121C-125.78 252.913 -128.161 253.731 -130.548 254.574C-133.062 255.463 -135.519 256.363 -137.92 257.275L-138.453 255.873C-143.341 257.73 -147.999 259.635 -152.433 261.584L-151.829 262.957C-156.659 265.08 -161.22 267.255 -165.522 269.477L-166.21 268.145C-170.964 270.6 -175.407 273.115 -179.555 275.683L-178.766 276.958C-183.271 279.748 -187.421 282.598 -191.233 285.502L-192.142 284.308C-196.391 287.545 -200.232 290.85 -203.688 294.216L-202.642 295.29C-206.405 298.954 -209.701 302.683 -212.565 306.465L-213.761 305.559C-216.987 309.819 -219.681 314.152 -221.887 318.539L-220.547 319.213C-222.856 323.806 -224.619 328.457 -225.891 333.145L-227.338 332.752C-228.687 337.722 -229.495 342.735 -229.826 347.766L-228.329 347.864C-228.656 352.837 -228.507 357.834 -227.943 362.832L-229.434 363.001C-228.868 368.013 -227.892 373.019 -226.567 377.994L-225.117 377.608C-223.84 382.402 -222.233 387.173 -220.35 391.899L-221.744 392.455C-219.876 397.142 -217.743 401.779 -215.396 406.347L-214.062 405.661C-211.766 410.13 -209.263 414.534 -206.604 418.853L-207.881 419.639C-205.208 423.979 -202.38 428.231 -199.447 432.374L-198.223 431.507C-195.276 435.67 -192.222 439.723 -189.113 443.648L-190.289 444.579C-187.066 448.647 -183.785 452.575 -180.504 456.34L-179.374 455.354C-175.944 459.289 -172.515 463.046 -169.151 466.598L-170.24 467.629C-166.55 471.525 -162.939 475.175 -159.496 478.544L-158.447 477.471C-154.49 481.343 -150.753 484.841 -147.372 487.914L-148.381 489.024C-143.797 493.19 -139.862 496.577 -136.905 499.053L-135.942 497.903C-134.105 499.442 -132.648 500.627 -131.653 501.425C-131.165 501.817 -130.787 502.116 -130.531 502.318H-123.604Z" stroke="#59A29D" stroke-width="3" stroke-dasharray="15 15"/>
<path d="M613.29 269.221C267.444 331.091 91.5958 195.188 -131.047 269.221C-353.691 343.254 -131.047 505.068 -131.047 505.068H613.29C613.29 505.068 959.137 207.351 613.29 269.221Z" fill="#59A29D"/>
<path d="M613.29 288C267.444 346.582 91.5958 217.901 -131.047 288C-353.691 358.098 -131.047 511.314 -131.047 511.314H613.29C613.29 511.314 959.137 229.418 613.29 288Z" fill="#388580"/>
</g>
<defs>
<clipPath id="clip0_328_2872">
<rect width="500" height="500" rx="18" fill="white"/>
</clipPath>
</defs>
</svg>
