<svg width="70" height="20" viewBox="0 0 70 20" fill="none" xmlns="http://www.w3.org/2000/svg">
<path d="M33.3293 10.0057L41.4506 2.27248L39.0605 -6.4756e-09L28.5374 10.0057L39.0605 20L41.4506 17.7275L33.3293 10.0057Z" fill="#E6C200"/>
<path d="M47.5148 10.0057L55.6361 2.27248L53.2461 -6.4756e-09L42.7229 10.0057L53.2461 20L55.6361 17.7275L47.5148 10.0057Z" fill="#E6C200"/>
<path d="M61.8667 10.0057L69.9999 2.27248L67.598 -6.4756e-09L57.0867 10.0057L67.598 20L69.9999 17.7275L61.8667 10.0057Z" fill="#E6C200"/>
<path d="M4.79195 10.0057L12.9132 2.27248L10.5232 -6.4756e-09L0 10.0057L10.5232 20L12.9132 17.7275L4.79195 10.0057Z" fill="#E6C200"/>
<path d="M18.9775 10.0057L27.0987 2.27248L24.7087 -6.4756e-09L14.1855 10.0057L24.7087 20L27.0987 17.7275L18.9775 10.0057Z" fill="#E6C200"/>
</svg>
