<svg width="70" height="20" viewBox="0 0 70 20" fill="none" xmlns="http://www.w3.org/2000/svg">
<path d="M36.6707 9.99431L28.5494 17.7275L30.9395 20L41.4626 9.99431L30.9395 0L28.5494 2.27248L36.6707 9.99431Z" fill="#E5C100"/>
<path d="M22.4852 9.99431L14.3639 17.7275L16.7539 20L27.2771 9.99431L16.7539 0L14.3639 2.27248L22.4852 9.99431Z" fill="#E5C100"/>
<path d="M8.13329 9.99431L0.00011861 17.7275L2.40204 20L12.9133 9.99431L2.40204 0L0.00011861 2.27248L8.13329 9.99431Z" fill="#E5C100"/>
<path d="M65.2081 9.99431L57.0868 17.7275L59.4768 20L70 9.99431L59.4768 0L57.0868 2.27248L65.2081 9.99431Z" fill="#E5C100"/>
<path d="M51.0225 9.99431L42.9013 17.7275L45.2913 20L55.8145 9.99431L45.2913 0L42.9013 2.27248L51.0225 9.99431Z" fill="#E5C100"/>
</svg>
