<svg width="164" height="46" viewBox="0 0 164 46" fill="none" xmlns="http://www.w3.org/2000/svg">
<path d="M65.6409 33V17.14H60.7269V13.63H74.5069V17.14H69.6709V33H65.6409ZM80.9145 33.312C79.4065 33.312 78.0978 32.9827 76.9885 32.324C75.8791 31.648 75.0211 30.7467 74.4145 29.62C73.8078 28.4933 73.5045 27.2453 73.5045 25.876C73.5045 24.4547 73.8165 23.1893 74.4405 22.08C75.0818 20.9707 75.9398 20.0953 77.0145 19.454C78.0891 18.8127 79.3025 18.492 80.6545 18.492C81.7811 18.492 82.7778 18.674 83.6445 19.038C84.5111 19.3847 85.2391 19.8787 85.8285 20.52C86.4351 21.1613 86.8945 21.9067 87.2065 22.756C87.5185 23.588 87.6745 24.498 87.6745 25.486C87.6745 25.7633 87.6571 26.0407 87.6225 26.318C87.6051 26.578 87.5618 26.8033 87.4925 26.994H76.8585V24.134H85.2825L83.4365 25.486C83.6098 24.7407 83.6011 24.082 83.4105 23.51C83.2198 22.9207 82.8818 22.4613 82.3965 22.132C81.9285 21.7853 81.3478 21.612 80.6545 21.612C79.9785 21.612 79.3978 21.7767 78.9125 22.106C78.4271 22.4353 78.0631 22.9207 77.8205 23.562C77.5778 24.2033 77.4825 24.9833 77.5345 25.902C77.4651 26.6993 77.5605 27.4013 77.8205 28.008C78.0805 28.6147 78.4791 29.0913 79.0165 29.438C79.5538 29.7673 80.2038 29.932 80.9665 29.932C81.6598 29.932 82.2491 29.7933 82.7345 29.516C83.2371 29.2387 83.6271 28.8573 83.9045 28.372L87.0245 29.854C86.7471 30.5473 86.3051 31.154 85.6985 31.674C85.1091 32.194 84.4071 32.6013 83.5925 32.896C82.7778 33.1733 81.8851 33.312 80.9145 33.312ZM96.627 33.312C95.2057 33.312 93.923 32.9913 92.779 32.35C91.6523 31.6913 90.751 30.7987 90.075 29.672C89.4163 28.5453 89.087 27.28 89.087 25.876C89.087 24.472 89.4163 23.2153 90.075 22.106C90.7337 20.9793 91.635 20.0953 92.779 19.454C93.923 18.8127 95.2057 18.492 96.627 18.492C97.6843 18.492 98.6637 18.674 99.565 19.038C100.466 19.402 101.238 19.9133 101.879 20.572C102.52 21.2133 102.98 21.976 103.257 22.86L99.877 24.316C99.6343 23.6053 99.2183 23.042 98.629 22.626C98.057 22.21 97.3897 22.002 96.627 22.002C95.951 22.002 95.3443 22.1667 94.807 22.496C94.287 22.8253 93.871 23.2847 93.559 23.874C93.2643 24.4633 93.117 25.1393 93.117 25.902C93.117 26.6647 93.2643 27.3407 93.559 27.93C93.871 28.5193 94.287 28.9787 94.807 29.308C95.3443 29.6373 95.951 29.802 96.627 29.802C97.407 29.802 98.083 29.594 98.655 29.178C99.227 28.762 99.6343 28.1987 99.877 27.488L103.257 28.97C102.997 29.802 102.546 30.5473 101.905 31.206C101.264 31.8647 100.492 32.3847 99.591 32.766C98.6897 33.13 97.7017 33.312 96.627 33.312ZM105.242 33V13.318H109.142V21.612L108.674 20.988C109.003 20.1387 109.532 19.5147 110.26 19.116C111.005 18.7 111.872 18.492 112.86 18.492C113.934 18.492 114.87 18.7173 115.668 19.168C116.482 19.6187 117.115 20.2513 117.566 21.066C118.016 21.8633 118.242 22.7993 118.242 23.874V33H114.342V24.706C114.342 24.1513 114.229 23.6747 114.004 23.276C113.796 22.8773 113.492 22.5653 113.094 22.34C112.712 22.1147 112.262 22.002 111.742 22.002C111.239 22.002 110.788 22.1147 110.39 22.34C109.991 22.5653 109.679 22.8773 109.454 23.276C109.246 23.6747 109.142 24.1513 109.142 24.706V33H105.242ZM120.78 33V13.63H124.81V29.49H133V33H120.78ZM134.401 33V18.804H138.301V33H134.401ZM134.401 17.53V13.63H138.301V17.53H134.401ZM140.843 33V18.804H144.483V22.262L144.093 21.69C144.301 20.598 144.803 19.792 145.601 19.272C146.398 18.752 147.351 18.492 148.461 18.492C149.639 18.492 150.671 18.7953 151.555 19.402C152.456 19.9913 153.019 20.7887 153.245 21.794L152.127 21.898C152.595 20.7367 153.262 19.8787 154.129 19.324C154.995 18.7693 156.009 18.492 157.171 18.492C158.193 18.492 159.095 18.7173 159.875 19.168C160.672 19.6187 161.296 20.2513 161.747 21.066C162.197 21.8633 162.423 22.7993 162.423 23.874V33H158.523V24.706C158.523 24.1513 158.419 23.6747 158.211 23.276C158.02 22.8773 157.743 22.5653 157.379 22.34C157.015 22.1147 156.573 22.002 156.053 22.002C155.55 22.002 155.108 22.1147 154.727 22.34C154.363 22.5653 154.077 22.8773 153.869 23.276C153.678 23.6747 153.583 24.1513 153.583 24.706V33H149.683V24.706C149.683 24.1513 149.579 23.6747 149.371 23.276C149.18 22.8773 148.903 22.5653 148.539 22.34C148.175 22.1147 147.733 22.002 147.213 22.002C146.71 22.002 146.268 22.1147 145.887 22.34C145.523 22.5653 145.237 22.8773 145.029 23.276C144.838 23.6747 144.743 24.1513 144.743 24.706V33H140.843Z" fill="#388580"/>
<path fill-rule="evenodd" clip-rule="evenodd" d="M0 9.6688L22.4187 0L44.8375 9.6688L41.1529 11.2579L43.4955 22.894C44.3547 23.0839 45 23.8884 45 24.852C45 25.9568 44.1518 26.8524 43.1055 26.8524C42.0591 26.8524 41.2109 25.9568 41.2109 24.852C41.2109 24.0766 41.6287 23.4042 42.2396 23.0722L39.9643 11.7705L37.5752 12.8009V17.7645H37.5582C37.5694 17.7882 37.5751 17.812 37.5751 17.836C37.5751 18.6642 30.7914 19.3357 22.4226 19.3359L22.4187 19.3376L22.4149 19.3359C14.046 19.3357 7.26239 18.6642 7.26239 17.836C7.26239 17.812 7.26806 17.7882 7.27927 17.7645H7.26251V12.801L0 9.6688ZM14.6122 20.9033C10.7766 20.7039 7.90684 20.3635 6.81712 19.9578C3.76771 26.6091 5.21987 35.6549 11.3187 41.1099C15.5681 45.463 25.8314 47.9214 32.941 42.2379C39.1044 37.3568 39.5046 31.5502 39.7831 27.5097C39.7991 27.2764 39.8148 27.0491 39.8312 26.8281L39.8304 26.83C38.9822 31.6977 36.4325 35.7702 31.2891 37.9299C28.1472 34.6936 25.5382 34.2224 23.2386 33.8071C21.2925 33.4556 19.568 33.1441 17.9297 31.2306C16.486 29.7187 16.4362 28.4889 16.3755 26.9917C16.313 25.4475 16.2389 23.6189 14.6122 20.9033ZM27.9492 21.0938L28.9359 24.1303H32.1287L29.5456 26.007L30.5323 29.0435L27.9492 27.1668L25.3662 29.0435L26.3528 26.007L23.7698 24.1303H26.9626L27.9492 21.0938Z" fill="#388580"/>
</svg>
