<svg width="45" height="46" viewBox="0 0 45 46" fill="none" xmlns="http://www.w3.org/2000/svg">
<path fill-rule="evenodd" clip-rule="evenodd" d="M0 9.6688L22.4187 0L44.8375 9.6688L41.1529 11.2579L43.4955 22.894C44.3547 23.0839 45 23.8884 45 24.852C45 25.9568 44.1518 26.8524 43.1055 26.8524C42.0591 26.8524 41.2109 25.9568 41.2109 24.852C41.2109 24.0766 41.6287 23.4042 42.2396 23.0722L39.9643 11.7705L37.5752 12.8009V17.7645H37.5582C37.5694 17.7882 37.5751 17.812 37.5751 17.836C37.5751 18.6642 30.7914 19.3357 22.4226 19.3359L22.4187 19.3376L22.4149 19.3359C14.046 19.3357 7.26239 18.6642 7.26239 17.836C7.26239 17.812 7.26806 17.7882 7.27927 17.7645H7.26251V12.801L0 9.6688ZM14.6122 20.9033C10.7766 20.7039 7.90684 20.3635 6.81712 19.9578C3.76771 26.6091 5.21987 35.6549 11.3187 41.1099C15.5681 45.463 25.8314 47.9214 32.941 42.2379C39.1044 37.3568 39.5046 31.5502 39.7831 27.5097C39.7991 27.2764 39.8148 27.0491 39.8312 26.8281L39.8304 26.83C38.9822 31.6977 36.4325 35.7702 31.2891 37.9299C28.1472 34.6936 25.5382 34.2224 23.2386 33.8071C21.2925 33.4556 19.568 33.1441 17.9297 31.2306C16.486 29.7187 16.4362 28.4889 16.3755 26.9917C16.313 25.4475 16.2389 23.6189 14.6122 20.9033ZM27.9492 21.0938L28.9359 24.1303H32.1287L29.5456 26.007L30.5323 29.0435L27.9492 27.1668L25.3662 29.0435L26.3528 26.007L23.7698 24.1303H26.9626L27.9492 21.0938Z" fill="#388580"/>
</svg>
