<svg width="300" height="400" viewBox="0 0 300 400" fill="none" xmlns="http://www.w3.org/2000/svg">
<g clip-path="url(#clip0_327_2829)">
<rect width="300" height="400" transform="matrix(-1 0 0 1 301 0)" fill="white"/>
<path opacity="0.6" fill-rule="evenodd" clip-rule="evenodd" d="M174.221 36H216.481L216.481 80.7252H258.74L258.74 101.707H301V233.122H258.74L258.74 212.14H216.481L216.481 167.415H174.221L174.221 253H131.962V233.122H95.7405H95.4249V212.14H53.4809L53.481 167.415H11.2214L11.2214 253H-31.0381V233.122H-67.5751V101.707H-25.3156V121.585H11.2214L11.2214 36H53.481L53.4809 80.7252H95.7405L95.7405 101.707H137.684H138V121.585H174.221L174.221 36ZM188.748 50.3563H201.954V66.9211H188.748V50.3563ZM201.954 85.1425H188.748V101.707H201.954V85.1425ZM188.748 119.929H201.954V136.494H188.748V119.929ZM231.008 95.0815H244.214V111.646H231.008V95.0815ZM244.214 129.868H231.008V146.433H244.214V129.868ZM231.008 164.654H244.214V181.219H231.008V164.654ZM273.267 116.064H286.473V132.629H273.267V116.064ZM286.473 150.85H273.267V167.415H286.473V150.85ZM273.267 185.636H286.473V202.201H273.267V185.636ZM110.267 132.629H123.158V116.064H110.267V132.629ZM123.158 167.415V150.85H110.267V167.415H123.158ZM110.267 202.201H123.158V185.636H110.267V202.201ZM81.2137 95.0815H68.0076V111.646H81.2137V95.0815ZM68.0076 129.868H81.2137V146.433H68.0076V129.868ZM81.2137 164.654H68.0076V181.219H81.2137V164.654ZM38.9542 50.3563H25.7481V66.9211H38.9542V50.3563ZM25.7481 85.1425H38.9542V101.707H25.7481V85.1425ZM38.9542 119.929H25.7481V136.494H38.9542V119.929ZM146.489 135.941H159.695V152.506H146.489V135.941ZM159.695 170.728H146.489V187.293H159.695V170.728ZM146.489 205.514H159.695V222.079H146.489V205.514ZM-3.3053 135.941H-16.5114V152.506H-3.3053V135.941ZM-16.5114 170.728H-3.3053V187.293H-16.5114V170.728ZM-3.3053 205.514H-16.5114V222.079H-3.3053V205.514ZM-39.8423 116.064H-53.0484V132.629H-39.8423V116.064ZM-53.0484 150.85H-39.8423V167.415H-53.0484V150.85ZM-39.8423 185.636H-53.0484V202.201H-39.8423V185.636Z" fill="#EAEAEA"/>
<path d="M300 150.5C124.934 217.448 15 116 15 116C-77 34.5 0 370 0 370H300V150.5Z" fill="#59A29D"/>
</g>
<defs>
<clipPath id="clip0_327_2829">
<rect width="300" height="400" rx="18" transform="matrix(-1 0 0 1 300 0)" fill="white"/>
</clipPath>
</defs>
</svg>
