<svg width="300" height="400" viewBox="0 0 300 400" fill="none" xmlns="http://www.w3.org/2000/svg">
<g clip-path="url(#clip0_327_2831)">
<rect width="300" height="400" fill="white"/>
<g opacity="0.5">
<path d="M33.0312 95.0522L45.052 83.0314C47.981 80.1024 52.7297 80.1024 55.6586 83.0314L67.6795 95.0522C70.6084 97.9811 70.6084 102.73 67.6795 105.659L55.6586 117.68C52.7297 120.609 47.981 120.609 45.052 117.68L33.0312 105.659C30.1023 102.73 30.1023 97.9811 33.0312 95.0522Z" fill="#EAEAEA"/>
<path fill-rule="evenodd" clip-rule="evenodd" d="M23.8388 91.5166C18.9573 96.3982 18.9573 104.313 23.8388 109.194L41.5165 126.872C46.3981 131.754 54.3126 131.754 59.1942 126.872L76.8718 109.194C81.7534 104.313 81.7534 96.3982 76.8718 91.5166L59.1942 73.839C54.3126 68.9574 46.3981 68.9574 41.5165 73.839L23.8388 91.5166ZM29.4957 109.194C24.6141 104.313 24.6141 96.3982 29.4957 91.5166L41.5165 79.4958C46.3981 74.6143 54.3126 74.6143 59.1942 79.4958L71.215 91.5166C76.0965 96.3982 76.0965 104.313 71.215 109.194L59.1942 121.215C54.3126 126.097 46.3981 126.097 41.5165 121.215L29.4957 109.194Z" fill="#EAEAEA"/>
</g>
<g opacity="0.5">
<path d="M232.031 48.0522L244.052 36.0314C246.981 33.1024 251.73 33.1024 254.659 36.0314L266.679 48.0522C269.608 50.9811 269.608 55.7298 266.679 58.6588L254.659 70.6796C251.73 73.6085 246.981 73.6085 244.052 70.6796L232.031 58.6588C229.102 55.7298 229.102 50.9811 232.031 48.0522Z" fill="#EAEAEA"/>
<path fill-rule="evenodd" clip-rule="evenodd" d="M222.839 44.5166C217.957 49.3982 217.957 57.3127 222.839 62.1943L240.517 79.872C245.398 84.7535 253.313 84.7535 258.194 79.872L275.872 62.1943C280.753 57.3127 280.753 49.3982 275.872 44.5166L258.194 26.839C253.313 21.9574 245.398 21.9574 240.517 26.839L222.839 44.5166ZM228.496 62.1943C223.614 57.3128 223.614 49.3982 228.496 44.5166L240.517 32.4958C245.398 27.6143 253.313 27.6143 258.194 32.4958L270.215 44.5166C275.097 49.3982 275.097 57.3127 270.215 62.1943L258.194 74.2151C253.313 79.0967 245.398 79.0967 240.517 74.2151L228.496 62.1943Z" fill="#EAEAEA"/>
</g>
<path d="M0 150.5C175.066 217.448 285 116 285 116C377 34.5 300 370 300 370H0V150.5Z" fill="#59A29D"/>
</g>
<defs>
<clipPath id="clip0_327_2831">
<rect width="300" height="400" rx="18" fill="white"/>
</clipPath>
</defs>
</svg>
